<svg width="200" height="34" fill="none" xmlns="http://www.w3.org/2000/svg"><path d="M0 26.517V1.345h7.578l5.6 14.138h.637l5.533-14.138h7.712v25.172h-5.432V7.103l-5.7 14.31h-5.231L5.03 7.242v19.276H0ZM35.6 26.103 29.968 7.621h5.4l4.056 14.172h.671l3.353-14.172h5.097l-5.13 20.413c-.38 1.472-.894 2.644-1.543 3.518-.626.873-1.475 1.494-2.548 1.862-1.05.39-2.38.586-3.99.586h-3.286v-4.69h3.822c.85 0 1.509-.172 1.978-.517.492-.345.85-.965 1.073-1.862l.168-.828h-3.487Z" fill="#222"/><path d="M50.298 26.517V1.345h14.687v4.69h-9.188v5.655h8.785v4.69h-8.785v10.137h-5.5ZM71.514 5.759c-1.006 0-1.755-.265-2.247-.793-.47-.552-.704-1.242-.704-2.07 0-.85.235-1.54.704-2.068C69.759.276 70.507 0 71.514 0c1.006 0 1.743.276 2.213.828.492.528.737 1.218.737 2.069 0 .827-.245 1.517-.737 2.069-.47.528-1.207.793-2.213.793Zm-2.08 20.758V11.69h-2.447V7.62H74.8v18.897h-5.365ZM79.762 26.517V7.621h4.258v4.827c.738-3.609 2.806-5.414 6.204-5.414h.235c2.123 0 3.755.725 4.895 2.173 1.14 1.425 1.71 3.598 1.71 6.517v10.793H91.7V15.414c0-1.012-.29-1.84-.871-2.483-.582-.644-1.364-.965-2.348-.965-1.006 0-1.822.333-2.448 1-.603.643-.905 1.494-.905 2.551v11h-5.365ZM106.867 27c-1.989 0-3.599-.529-4.828-1.586-1.208-1.058-1.811-2.552-1.811-4.483 0-1.38.346-2.506 1.039-3.38.693-.896 1.666-1.551 2.918-1.965 1.252-.437 2.693-.655 4.325-.655h3.32v-.069c0-1.931-.939-2.896-2.817-2.896-.492 0-1.14.023-1.945.069-.804.022-1.643.057-2.514.103-.85.023-1.61.057-2.281.103V7.586a62.347 62.347 0 0 1 2.884-.172 52.495 52.495 0 0 1 3.152-.104c2.817 0 4.963.621 6.438 1.862 1.498 1.219 2.247 3.138 2.247 5.76v11.585h-4.259v-3.552c-.402 1.31-1.095 2.31-2.079 3-.983.69-2.246 1.035-3.789 1.035Zm1.61-3.828c.872 0 1.632-.252 2.28-.758.648-.506 1.006-1.471 1.073-2.897V18h-3.353c-.939 0-1.666.241-2.18.724-.492.483-.738 1.115-.738 1.897 0 .758.246 1.379.738 1.862.514.46 1.241.69 2.18.69ZM121.546 26.517V7.621h4.258v4.827c.738-3.609 2.806-5.414 6.204-5.414h.234c2.124 0 3.756.725 4.896 2.173 1.14 1.425 1.71 3.598 1.71 6.517v10.793h-5.365V15.414c0-1.012-.291-1.84-.872-2.483-.581-.644-1.363-.965-2.347-.965-1.006 0-1.822.333-2.448 1-.603.643-.905 1.494-.905 2.551v11h-5.365ZM151.669 27.172c-1.587 0-2.973-.264-4.158-.793-1.163-.551-2.135-1.287-2.917-2.207a9.192 9.192 0 0 1-1.744-3.103 11.67 11.67 0 0 1-.57-3.62v-.656c0-1.724.346-3.333 1.039-4.827a8.868 8.868 0 0 1 3.152-3.621c1.409-.92 3.13-1.38 5.164-1.38 1.655 0 3.119.334 4.393 1a7.707 7.707 0 0 1 3.051 2.725c.76 1.172 1.185 2.517 1.275 4.034h-5.265c-.089-.85-.425-1.563-1.006-2.138-.581-.598-1.397-.896-2.448-.896-1.363 0-2.369.505-3.018 1.517-.648.988-.972 2.299-.972 3.931 0 1.54.302 2.816.905 3.827.626.989 1.666 1.483 3.119 1.483 1.073 0 1.911-.287 2.515-.862.603-.574.961-1.333 1.073-2.276h5.231c-.09 1.564-.526 2.943-1.308 4.138-.76 1.173-1.8 2.092-3.118 2.759-1.297.644-2.761.965-4.393.965ZM172.335 27.172c-1.564 0-2.95-.275-4.157-.827-1.185-.552-2.18-1.287-2.985-2.207A9.774 9.774 0 0 1 163.382 21a10.985 10.985 0 0 1-.603-3.586v-.69c0-1.241.201-2.448.603-3.62a9.308 9.308 0 0 1 1.811-3.138 8.682 8.682 0 0 1 2.917-2.173c1.163-.552 2.504-.827 4.024-.827 1.967 0 3.622.46 4.963 1.379a8.751 8.751 0 0 1 3.118 3.552c.716 1.47 1.073 3.057 1.073 4.758v1.862h-13.446c.179 1.288.626 2.31 1.341 3.07.738.735 1.789 1.103 3.152 1.103.962 0 1.755-.184 2.381-.552.649-.39 1.084-.885 1.308-1.483h4.929c-.402 1.931-1.375 3.506-2.917 4.724-1.52 1.196-3.42 1.793-5.701 1.793Zm-.201-15.724c-1.162 0-2.112.345-2.85 1.035-.715.666-1.174 1.632-1.375 2.896h8.249c-.179-1.264-.615-2.23-1.308-2.896-.67-.69-1.576-1.035-2.716-1.035ZM191.818 27.104c-2.615 0-4.661-.552-6.136-1.656-1.475-1.103-2.258-2.655-2.347-4.655h4.761c.067.598.414 1.138 1.04 1.62.626.46 1.553.69 2.783.69.916 0 1.688-.16 2.314-.482.625-.322.938-.805.938-1.449 0-.551-.234-.988-.704-1.31-.469-.345-1.307-.586-2.515-.724L190.511 19c-2.214-.253-3.879-.885-4.997-1.896-1.095-1.012-1.643-2.334-1.643-3.966 0-1.333.324-2.448.973-3.345.67-.896 1.576-1.575 2.716-2.034 1.14-.46 2.448-.69 3.923-.69 2.37 0 4.27.54 5.7 1.62 1.453 1.058 2.225 2.598 2.314 4.621h-4.761c-.09-.597-.414-1.115-.973-1.551-.536-.437-1.319-.655-2.347-.655-.827 0-1.487.16-1.979.482-.491.322-.737.759-.737 1.31 0 .53.212.932.637 1.207.425.276 1.118.472 2.079.587l1.442.138c2.235.253 3.979.908 5.231 1.965 1.274 1.035 1.911 2.414 1.911 4.138 0 1.908-.738 3.414-2.213 4.517-1.475 1.104-3.465 1.655-5.969 1.655Z" fill="#36C044"/></svg>