<svg width="26" height="29" fill="none" xmlns="http://www.w3.org/2000/svg"><path opacity=".6" d="M1 6.333h24" stroke="#FC5050" stroke-width="2" stroke-linecap="round" stroke-linejoin="round"/><path fill-rule="evenodd" clip-rule="evenodd" d="M9.155 2.488A1.667 1.667 0 0 1 10.333 2h5.334a1.667 1.667 0 0 1 1.666 1.667v1.666h2V3.667A3.667 3.667 0 0 0 15.667 0h-5.334a3.667 3.667 0 0 0-3.666 3.667v1.666h2V3.667c0-.442.175-.866.488-1.179Zm14.178 4.845h-2V25a1.667 1.667 0 0 1-1.666 1.667H6.333A1.667 1.667 0 0 1 4.667 25V7.333h-2V25a3.666 3.666 0 0 0 3.666 3.667h13.334A3.666 3.666 0 0 0 23.333 25V7.333Z" fill="#FC5050"/></svg>